<?xml version="1.0" encoding="utf-8"?>
<!-- Generator: Adobe Illustrator 24.0.1, SVG Export Plug-In . SVG Version: 6.00 Build 0)  -->
<svg version="1.1" xmlns="http://www.w3.org/2000/svg" xmlns:xlink="http://www.w3.org/1999/xlink" x="0px" y="0px"
	 viewBox="0 0 235.9 247.1" style="enable-background:new 0 0 235.9 247.1;" xml:space="preserve">
<style type="text/css">
	.st0{display:none;}
	.st1{display:inline;fill:#F7F8FC;}
	.st2{display:inline;}
	.st3{fill:#F7F8FC;}
	.st4{fill:none;stroke:#0561FC;stroke-width:10.0172;stroke-linejoin:round;}
	.st5{fill:#C5E1F9;}
	.st6{fill:none;stroke:#0561FC;stroke-width:10.0172;stroke-linejoin:bevel;}
	.st7{fill:#FFFFFF;stroke:#0561FC;stroke-width:10.0172;stroke-linejoin:round;}
	.st8{fill:#9AC7F7;}
	.st9{fill:#FFFFFF;stroke:#0561FC;stroke-width:10.0172;}
	.st10{fill:#FFFFFF;}
	.st11{fill:none;stroke:#0561FC;stroke-width:10.0172;}
	.st12{fill:none;stroke:#FFFFFF;stroke-width:10.0172;}
	.st13{fill:none;stroke:#0561FC;stroke-width:10.0172;stroke-linecap:round;stroke-miterlimit:10;}
	.st14{fill:#9AC7F7;stroke:#0561FC;stroke-width:10.0172;}
	.st15{fill:#0561FC;}
	.st16{fill:none;stroke:#0561FC;stroke-width:10.0172;stroke-linecap:round;stroke-linejoin:round;}
	.st17{fill:none;stroke:#0561FC;stroke-width:10.0172;stroke-dasharray:9.848,9.848;}
	.st18{fill:none;stroke:#0561FC;stroke-width:10.0172;stroke-dasharray:9.7757,9.7757;}
	.st19{fill:none;stroke:#0561FC;stroke-width:10.0172;stroke-dasharray:9.929,9.929;}
	.st20{fill:none;stroke:#0561FC;stroke-width:10.0172;stroke-dasharray:10.2413,10.2413;}
	.st21{fill:#9AC7F7;stroke:#0561FC;stroke-width:10.0172;stroke-linecap:round;stroke-linejoin:round;}
	.st22{fill:none;stroke:#0561FC;stroke-width:10.0172;stroke-dasharray:10.276,10.276;}
	.st23{fill:#FFFFFF;stroke:#0561FC;stroke-width:10.0172;stroke-linecap:round;stroke-linejoin:round;}
</style>
<g id="Layer_2">
	<g class="st0">
		<rect x="-41.8" y="-52.2" class="st1" width="100" height="100"/>
		<rect x="111.6" y="-52.2" class="st1" width="100" height="100"/>
		<g class="st2">
			<rect x="-41.8" y="101.2" class="st3" width="100" height="100"/>
			<rect x="111.6" y="101.2" class="st3" width="100" height="100"/>
		</g>
	</g>
</g>
<g id="Layer_3">
</g>
<g id="Layer_4">
	<g>
		<g>
			<path class="st11" d="M5,117.6c0-1.7,0-3.4,0.1-5"/>
			<path class="st18" d="M6,102.9C13.2,47.6,60.3,5,117.4,5c16.7,0,32.6,3.7,46.8,10.2"/>
			<path class="st11" d="M168.6,17.4c1.5,0.8,3,1.6,4.4,2.4"/>
		</g>
		<g>
			<path class="st11" d="M229.7,117.6c0,1.7,0,3.4-0.1,5"/>
			<path class="st19" d="M228.7,132.5c-3.4,25.5-15.3,48.3-32.7,65.5"/>
			<path class="st11" d="M192.4,201.4c-1.2,1.1-2.5,2.2-3.8,3.3"/>
		</g>
		<path class="st15" d="M117.4,69.3c26.6,0,48.2,21.6,48.2,48.3c0,26.7-21.6,48.3-48.2,48.3c-26.6,0-48.2-21.6-48.2-48.3
			C69.1,90.9,90.7,69.3,117.4,69.3 M117.4,59.3c-32.1,0-58.2,26.2-58.2,58.4c0,32.2,26.1,58.4,58.2,58.4c32.1,0,58.2-26.2,58.2-58.4
			C175.6,85.4,149.5,59.3,117.4,59.3L117.4,59.3z"/>
		<g>
			<path class="st4" d="M172.6,247.1v-73.3c14.3-14.4,23.2-34.2,23.2-56.1c0-43.9-35.5-79.5-79.3-79.5c-43.8,0-79.3,35.6-79.3,79.5
				c0,1.2,0,2.4,0.1,3.6l-11.1,19.2l-14.6,25.3h18.4v31.4c0,11.8,9.6,21.4,21.4,21.4h33.9v28.5"/>
		</g>
		<path class="st8" d="M179.9,33.6V55h21.9l-67.7,65.8L96.5,88.3l-36.5,38.8c1.3,8,4.3,15.5,8.5,22.1L98,117.8l37,31.8l79.6-77.3
			v17.4h21.3V33.6H179.9z"/>
	</g>
</g>
</svg>
